<?xml version="1.0" encoding="UTF-8" standalone="no"?>
<!-- Created with Inkscape (http://www.inkscape.org/) -->

<svg
   version="1.1"
   id="svg1"
   width="470.07465"
   height="208.92264"
   viewBox="0 0 470.07464 208.92263"
   sodipodi:docname="tmp.svg"
   inkscape:version="1.4.2 (f4327f4, 2025-05-13)"
   xmlns:inkscape="http://www.inkscape.org/namespaces/inkscape"
   xmlns:sodipodi="http://sodipodi.sourceforge.net/DTD/sodipodi-0.dtd"
   xmlns="http://www.w3.org/2000/svg"
   xmlns:svg="http://www.w3.org/2000/svg">
  <defs
     id="defs1">
    <clipPath
       clipPathUnits="userSpaceOnUse"
       id="clipPath3">
      <path
         d="M 0,1567 H 3526 V 0 H 0 Z"
         transform="translate(0,2.5000001e-4)"
         id="path3" />
    </clipPath>
    <clipPath
       clipPathUnits="userSpaceOnUse"
       id="clipPath5">
      <path
         d="M 0,1567 H 3526 V 0 H 0 Z"
         transform="translate(0,2.5000001e-4)"
         id="path5" />
    </clipPath>
    <clipPath
       clipPathUnits="userSpaceOnUse"
       id="clipPath7">
      <path
         d="M 0,1567 H 3526 V 0 H 0 Z"
         transform="translate(0,2.5000001e-4)"
         id="path7" />
    </clipPath>
  </defs>
  <sodipodi:namedview
     id="namedview1"
     pagecolor="#ffffff"
     bordercolor="#000000"
     borderopacity="0.25"
     inkscape:showpageshadow="2"
     inkscape:pageopacity="0.0"
     inkscape:pagecheckerboard="0"
     inkscape:deskcolor="#d1d1d1"
     inkscape:zoom="0.7571258"
     inkscape:cx="396.89573"
     inkscape:cy="-143.96551"
     inkscape:window-width="1920"
     inkscape:window-height="1110"
     inkscape:window-x="-9"
     inkscape:window-y="-9"
     inkscape:window-maximized="1"
     inkscape:current-layer="g1">
    <inkscape:page
       x="0"
       y="0"
       inkscape:label="1"
       id="page1"
       width="470.07465"
       height="208.92262"
       margin="0"
       bleed="0" />
  </sodipodi:namedview>
  <g
     id="g1"
     inkscape:groupmode="layer"
     inkscape:label="1"
     transform="translate(0,-913.74406)">
    <g
       id="group-R5">
      <path
         id="path2"
         d="m 3525.56,432.52 v 329.039 c 0,76.48 -41.85,118.339 -125.56,118.339 h -46.18 V 422.422 c 0,-139.992 -40.4,-181.844 -102.46,-181.844 -75.04,0 -121.22,44.742 -121.22,196.274 v 324.707 c 0,77.929 -43.3,119.781 -127,119.781 h -46.18 V 420.98 c 0,-232.351 122.67,-337.6987 281.41,-337.6987 194.83,0 287.19,116.8987 287.19,349.2387 z M 2803.99,100.602 v 464.687 c 0,230.902 -96.69,331.922 -248.22,331.922 -56.29,0 -125.56,-44.731 -147.2,-96.691 v 217.92 c 0,76.48 -44.74,121.22 -132.77,121.22 h -38.97 V 214.609 c 0,-67.828 38.97,-114.007 112.57,-114.007 h 57.72 v 461.796 c 0,132.774 53.4,176.071 108.24,176.071 70.71,0 115.45,-37.52 115.45,-181.84 v -342.02 c 0,-72.16 47.62,-114.007 115.45,-114.007 z M 1106.88,465.711 c 0,-163.07 -40.4,-226.57 -119.778,-226.57 -85.141,0 -147.204,93.8 -147.204,272.75 0,142.879 47.633,229.461 121.231,229.461 83.701,0 145.751,-73.602 145.751,-275.641 z m 170.29,-4.332 v 545.511 c 0,89.48 -41.85,132.77 -128.43,132.77 h -40.41 V 788.98 c -25.98,64.942 -82.26,108.231 -147.201,108.231 -190.5,0 -294.399,-154.41 -294.399,-422.84 0,-223.68 128.442,-391.0897 313.161,-391.0897 206.369,0 297.279,134.2067 297.279,378.0977 z M 408.41,623.02 c 0,-57.731 -27.422,-73.598 -167.41,-76.489 l -70.711,-1.441 c 0,79.371 23.09,204.922 127,204.922 69.27,0 111.121,-46.18 111.121,-126.992 z m 161.629,-12.989 c 0,184.719 -122.668,287.18 -258.32,287.18 C 124.109,897.211 0,738.469 0,474.371 0,229.039 147.199,83.2813 311.719,83.2813 c 174.621,0 232.34,73.5977 232.34,164.5197 v 60.609 h -7.207 C 486.34,250.691 418.512,234.809 344.91,234.809 c -93.801,0 -161.629,60.613 -173.18,178.953 l 111.122,1.437 c 206.367,2.891 287.187,47.633 287.187,194.832 v 0"
         style="fill:#171717;fill-opacity:1;fill-rule:nonzero;stroke:none"
         transform="matrix(0.13333333,0,0,-0.13333333,0,1122.6667)"
         clip-path="url(#clipPath3)" />
      <path
         id="path4"
         d="m 1935.23,1284.21 c 0,-35.32 -28.62,-63.94 -63.93,-63.94 -35.31,0 -63.94,28.62 -63.94,63.94 0,35.31 28.63,63.93 63.94,63.93 35.31,0 63.93,-28.62 63.93,-63.93 z M 1754.7,1061.66 c 0,0 -42.48,118.66 -37.59,136.71 5.38,19.83 37.59,38.33 37.59,38.33 0,0 34.63,-16.19 38.69,-38.33 4.07,-22.13 -38.69,-136.71 -38.69,-136.71 z m -53.15,222.55 c 0,-35.32 -28.62,-63.94 -63.94,-63.94 -35.31,0 -63.93,28.62 -63.93,63.94 0,35.31 28.62,63.93 63.93,63.93 35.32,0 63.94,-28.62 63.94,-63.93 z m 438.15,273.37 c -63.15,-2.11 -126.04,-27.92 -179.97,-59.34 -57.06,42.93 -127.78,68.68 -204.69,68.68 -76.57,0 -147,-25.52 -203.93,-68.11 -53.71,31.16 -116.2,56.68 -178.97,58.77 -91.75,3.06 16.08,-50.58 133.1,-99.99 -56.54,-60.89 -91.38,-142.2 -91.38,-231.84 0,-188.43 152.75,-341.18 341.18,-341.18 188.43,0 341.18,152.75 341.18,341.18 0,89.38 -34.65,170.47 -90.9,231.3 117.51,49.57 226.46,103.6 134.38,100.53 v 0"
         style="fill:#f15047;fill-opacity:1;fill-rule:nonzero;stroke:none"
         transform="matrix(0.13333333,0,0,-0.13333333,0,1122.6667)"
         clip-path="url(#clipPath5)" />
      <path
         id="path6"
         d="m 1869.36,94.5117 c 0.36,0.1289 0.71,0.2578 1.06,0.3789 -0.18,-1.039 -0.4,-2.0195 -0.56,-3.0898 -0.14,0.9375 -0.34,1.789 -0.5,2.7109 z m 209.1,388.7073 v 252.902 c 0,104.258 -41.85,143.551 -105.35,143.551 h -66.38 V 478.691 c 0,-163.179 -41.85,-229.671 -142.87,-229.671 -102.47,0 -158.75,69.511 -158.75,240.25 v 240.812 l 0.12,148.227 c 0,0 -5.53,1.363 -66.33,1.363 -60.81,0 -105.52,-69.352 -105.52,-143.141 0,-73.801 0,-251.793 0,-251.793 0,-187.886 61.42,-315.957 166.38,-373.968 -3.86,-11.7817 -6.28,-27.27 -6.28,-44.4419 C 1593.48,29.6992 1604.2,0 1617.43,0 c 8.58,0 16.04,12.5703 20.27,31.3203 C 1641.94,12.5703 1649.4,0 1657.97,0 c 9.97,0 18.5,16.8789 22.11,40.8711 C 1683.69,16.8789 1692.22,0 1702.19,0 c 13.23,0 23.95,29.6992 23.95,66.3281 0,3.3907 -0.18,6.6328 -0.36,9.8711 6.43,-0.3398 12.72,-0.9297 19.32,-0.9297 13.25,0 26.07,0.5821 38.54,1.6211 -0.2,-3.4609 -0.38,-6.9414 -0.38,-10.5625 C 1783.26,29.6992 1793.98,0 1807.21,0 c 8.57,0 16.04,12.5703 20.27,31.3086 C 1831.71,12.5703 1839.17,0 1847.75,0 c 9.97,0 18.5,16.8789 22.11,40.8711 C 1873.47,16.8789 1882,0 1891.97,0 c 13.23,0 23.95,29.6992 23.95,66.3281 0,17.5235 -2.5,33.3438 -6.51,45.2029 111.99,58.09 169.05,184.989 169.05,371.688 v 0"
         style="fill:#f15047;fill-opacity:1;fill-rule:nonzero;stroke:none"
         transform="matrix(0.13333333,0,0,-0.13333333,0,1122.6667)"
         clip-path="url(#clipPath7)" />
    </g>
  </g>
</svg>
