<?xml version="1.0" encoding="UTF-8"?>
<svg id="Ebene_1" data-name="Ebene 1" xmlns="http://www.w3.org/2000/svg" viewBox="0 0 464.85 379.21">
  <defs>
    <style>
      .cls-1 {
        fill: #eb634b;
        stroke-width: 0px;
      }
    </style>
  </defs>
  <path class="cls-1" d="M445.71,5.19c-35.1,1.17-70.05,15.52-100.02,32.98C313.98,14.31,274.68,0,231.94,0s-81.69,14.18-113.33,37.85C88.75,20.53,54.02,6.35,19.14,5.19c-50.99-1.7,8.94,28.11,73.97,55.57-31.42,33.84-50.78,79.03-50.78,128.84,0,104.72,84.89,189.61,189.61,189.61s189.61-84.89,189.61-189.61c0-49.67-19.26-94.74-50.52-128.54,65.31-27.55,125.85-57.58,74.68-55.87h0ZM202.21,157.11c0,19.63-15.91,35.53-35.53,35.53s-35.53-15.91-35.53-35.53,15.91-35.53,35.53-35.53,35.53,15.91,35.53,35.53h0ZM231.75,280.8s-23.61-65.94-20.89-75.98c2.99-11.02,20.89-21.3,20.89-21.3,0,0,19.25,9,21.5,21.3,2.26,12.3-21.5,75.98-21.5,75.98h0ZM332.07,157.11c0,19.63-15.91,35.53-35.53,35.53s-35.53-15.91-35.53-35.53,15.91-35.53,35.53-35.53,35.53,15.91,35.53,35.53h0Z"/>
</svg>